Coordinates
version=1
nRows=16
nColumns=40
inDegrees=yes

Units are S.I. units (second, meters, Newtons, ...)
Angles are in degrees.

endheader
time	pelvis_tilt	pelvis_list	pelvis_rotation	pelvis_tx	pelvis_ty	pelvis_tz	hip_flexion_r	hip_adduction_r	hip_rotation_r	knee_angle_r	knee_angle_r_beta	ankle_angle_r	subtalar_angle_r	mtp_angle_r	hip_flexion_l	hip_adduction_l	hip_rotation_l	knee_angle_l	knee_angle_l_beta	ankle_angle_l	subtalar_angle_l	mtp_angle_l	lumbar_extension	lumbar_bending	lumbar_rotation	arm_flex_r	arm_add_r	arm_rot_r	elbow_flex_r	pro_sup_r	wrist_flex_r	wrist_dev_r	arm_flex_l	arm_add_l	arm_rot_l	elbow_flex_l	pro_sup_l	wrist_flex_l	wrist_dev_l
     54.26000000	     -4.81213272	     -3.95165525	    -10.20930292	      1.05241664	      0.92646307	      0.39254244	     25.85695933	     -4.14552658	     -4.75648941	     21.35846614	     21.35846614	      5.75746774	      5.17783851	      0.44923584	      8.42728162	     -1.71673928	    -10.61164023	     20.79204970	     20.79204970	     19.02784040	    -13.45048836	      3.02337408	     -9.77982111	      7.68997653	      0.80650892	    -19.89441590	    -10.54672090	     -8.09031122	     28.08458484	     46.12993766	      0.00000000	      0.00000000	     37.96022001	    -22.47892965	     -2.20169280	     56.69449352	     46.99224970	      0.00000000	      0.00000000
     54.28271429	     -4.83210668	     -3.63574754	    -10.60641512	      1.05318727	      0.92560763	      0.39559060	     25.41690003	     -4.12381195	     -5.54921563	     19.09008220	     19.09008220	      6.50861603	      8.07320239	      3.89317914	      7.77535776	     -1.52197953	    -11.17181676	     20.24572538	     20.24572538	     18.74409245	    -13.29930569	      1.49386872	     -9.59570077	      7.37548204	      0.45573777	    -19.86336509	    -10.67679435	     -7.27219943	     28.91506652	     46.04266874	      0.00000000	      0.00000000	     37.70475875	    -22.73754685	     -4.50971085	     58.72187005	     47.21068815	      0.00000000	      0.00000000
     54.30542857	     -4.80051613	     -3.40090822	    -10.89296737	      1.05422497	      0.92471397	      0.39891774	     24.81397500	     -3.94948322	     -5.91334926	     17.11396604	     17.11396604	      6.22387517	      9.76082668	      4.34183886	      7.16298527	     -1.41100107	    -11.51396691	     19.96613118	     19.96613118	     19.01062911	    -13.09675505	      1.28564599	     -9.39997509	      7.12193193	      0.66044617	    -19.60942059	    -10.63286173	     -7.10754548	     28.97428359	     46.03208316	      0.00000000	      0.00000000	     38.15759490	    -22.79475126	     -4.72107676	     59.16043944	     47.23816205	      0.00000000	      0.00000000
     54.32814286	     -4.76473523	     -3.14713177	    -11.08322665	      1.05551885	      0.92375565	      0.40230624	     24.39152770	     -3.88120894	     -6.21175586	     15.98926930	     15.98926930	      5.98784825	     11.09147131	      4.24553746	      6.58615160	     -1.28838601	    -11.81279697	     19.75859966	     19.75859966	     19.27528480	    -12.85086361	      1.01364628	     -9.22041206	      6.91754629	      0.84173047	    -19.10197869	    -10.67306233	     -6.93500150	     29.11217753	     46.02038914	      0.00000000	      0.00000000	     38.34531368	    -22.70135288	     -5.11394493	     59.69362109	     47.27835158	      0.00000000	      0.00000000
     54.35085714	     -4.84825786	     -2.92452553	    -11.14381241	      1.05682836	      0.92259982	      0.40589048	     24.34965602	     -3.77791527	     -6.06042426	     15.76013359	     15.76013359	      5.92139253	     11.36635440	      4.16724731	      6.23580288	     -1.22433779	    -11.84047860	     19.74080617	     19.74080617	     19.60080203	    -12.86111776	      0.86720570	     -8.91782270	      6.73711233	      0.96913767	    -18.52922842	    -10.72544766	     -6.90735204	     29.30694708	     46.01547843	      0.00000000	      0.00000000	     38.44033548	    -22.53471276	     -5.15028694	     59.83719764	     47.28391762	      0.00000000	      0.00000000
     54.37357143	     -4.70750751	     -2.79544917	    -11.10356220	      1.05875997	      0.92207615	      0.40970321	     23.68038017	     -3.66972806	     -6.20615129	     15.15608859	     15.15608859	      4.42515007	     11.76968877	      0.15970294	      5.43022869	     -1.26426389	    -12.16355469	     19.41865922	     19.41865922	     19.83431788	    -12.19596919	      0.46076503	     -8.85473421	      6.57560521	      0.79020282	    -17.57682106	    -10.97431293	     -6.28123758	     29.18038201	     45.99275442	      0.00000000	      0.00000000	     37.68489939	    -22.09276206	     -7.06500435	     61.29108721	     47.44349738	      0.00000000	      0.00000000
     54.39628571	     -4.70064660	     -2.76061667	    -10.91966745	      1.06070060	      0.92155404	      0.41366238	     23.48742595	     -3.50540794	     -6.09504987	     15.58831788	     15.58831788	      4.41827434	     11.40372225	     -0.21045529	      4.87637693	     -1.39863086	    -11.99170925	     19.29382545	     19.29382545	     20.05222063	    -12.13905750	      0.43436092	     -8.65019828	      6.57097878	      0.90987608	    -16.84837673	    -11.14439566	     -6.23920780	     29.39837683	     45.98779052	      0.00000000	      0.00000000	     37.44564841	    -21.73339215	     -6.99327702	     61.25857014	     47.43491843	      0.00000000	      0.00000000
     54.41900000	     -4.58328069	     -2.68355922	    -10.63667554	      1.06294423	      0.92125871	      0.41801747	     23.09793662	     -3.26995213	     -5.23642422	     15.91495966	     15.91495966	      2.90364805	      9.39471312	     -5.24376942	      4.10406796	     -1.51740465	    -11.94830740	     19.00634650	     19.00634650	     20.32925775	    -11.64048493	      0.56941376	     -8.55601393	      6.44261114	      0.68756130	    -15.85367731	    -11.46170677	     -5.18793280	     29.17557219	     45.94620281	      0.00000000	      0.00000000	     36.70607982	    -21.41969919	     -7.94847143	     61.73445682	     47.49720445	      0.00000000	      0.00000000
     54.44171429	     -4.52114210	     -2.77365044	    -10.18740720	      1.06534383	      0.92128013	      0.42244133	     22.85710485	     -3.05973665	     -5.24587606	     16.78190232	     16.78190232	      3.10984318	      8.64068801	     -5.54705855	      3.39510940	     -1.83139041	    -11.66464578	     18.74679944	     18.74679944	     20.43230690	    -11.36338738	      0.59599792	     -8.42819253	      6.50553933	      0.75981845	    -15.29011880	    -11.64866672	     -5.16021197	     29.36805014	     45.94218841	      0.00000000	      0.00000000	     36.20297844	    -20.90915498	     -7.80980756	     61.59725372	     47.47948603	      0.00000000	      0.00000000
     54.46442857	     -4.42613218	     -2.81481848	     -9.69731331	      1.06781423	      0.92144835	      0.42730325	     22.67253062	     -2.69951518	     -4.25110102	     17.81426863	     17.81426863	      3.23143038	      6.09665181	     -6.18186836	      2.61963532	     -2.16774828	    -11.57432029	     18.42409041	     18.42409041	     20.56160583	    -10.65362438	      0.60667599	     -8.33211681	      6.45368003	      0.75331633	    -14.77611056	    -11.82726887	     -4.86317120	     29.55960652	     45.92304114	      0.00000000	      0.00000000	     35.57874690	    -20.51855898	     -7.95800205	     61.44666419	     47.47856284	      0.00000000	      0.00000000
     54.48714286	     -4.32305577	     -2.91146807	     -9.03765010	      1.07050794	      0.92185090	      0.43218967	     22.37291094	     -2.47679710	     -4.28559120	     18.76689305	     18.76689305	      3.60895225	      4.99574002	     -6.45954166	      1.84272951	     -2.56829609	    -11.28276671	     18.09288741	     18.09288741	     20.56047130	    -10.12077516	      0.65584530	     -8.26888551	      6.43891447	      0.73825644	    -14.43864464	    -11.95399797	     -4.79902830	     29.68932316	     45.91742421	      0.00000000	      0.00000000	     34.92046393	    -20.06537637	     -7.87661303	     61.21662748	     47.46206330	      0.00000000	      0.00000000
     54.50985714	     -4.24769592	     -3.04055498	     -8.27115896	      1.07323695	      0.92235432	      0.43723194	     21.98540326	     -2.20847716	     -4.42784590	     19.51232667	     19.51232667	      4.03191506	      3.85322048	     -6.59509791	      1.15349349	     -3.06403777	    -10.92367884	     17.84126716	     17.84126716	     20.52188723	     -9.56726910	      0.68617064	     -8.15800043	      6.43042219	      0.68724950	    -14.23319523	    -12.01941437	     -4.74691481	     29.78126650	     45.91253941	      0.00000000	      0.00000000	     34.14932465	    -19.56315871	     -7.76052570	     60.94465326	     47.44170057	      0.00000000	      0.00000000
     54.53257143	     -4.10586392	     -3.13096584	     -7.55501533	      1.07593381	      0.92307942	      0.44277173	     21.55337117	     -1.74497230	     -3.72914967	     20.23066668	     20.23066668	      4.51521915	      1.39776052	     -6.26449988	      0.34913256	     -3.61709312	    -10.99744126	     17.50395365	     17.50395365	     20.48901539	     -8.34060858	      0.62602398	     -8.15496653	      6.30022166	      0.56922881	    -14.07477880	    -12.09422914	     -4.52111914	     29.93122873	     45.89442580	      0.00000000	      0.00000000	     33.32750862	    -19.31724386	     -7.78447987	     60.53585727	     47.42743265	      0.00000000	      0.00000000
     54.55528571	     -4.08893917	     -3.33607559	     -6.68151017	      1.07862182	      0.92370382	      0.44810950	     21.05724192	     -1.39070907	     -4.21506250	     20.61757760	     20.61757760	      5.01295874	      0.66765129	     -6.29464008	     -0.13183487	     -4.30077760	    -10.56799753	     17.45746641	     17.45746641	     20.37839509	     -7.80654239	      0.64532289	     -8.02573956	      6.33091278	      0.56325693	    -14.16780085	    -12.11222635	     -4.44713117	     29.91478626	     45.88990341	      0.00000000	      0.00000000	     32.42136122	    -18.82861795	     -7.64503658	     60.24775486	     47.40380824	      0.00000000	      0.00000000
     54.57800000	     -3.97600351	     -3.62083635	     -5.86302935	      1.08126656	      0.92458667	      0.45383512	     20.34514579	     -0.77650084	     -4.20343695	     20.75463807	     20.75463807	      5.58760332	     -0.83284514	     -5.64905128	     -0.71222684	     -5.21700180	    -10.77623795	     17.45103949	     17.45103949	     20.40835322	     -6.30201032	      0.50995873	     -8.04742075	      6.39851597	      0.48688133	    -14.22958349	    -12.20141060	     -4.10135206	     29.99433279	     45.86508728	      0.00000000	      0.00000000	     31.37238019	    -18.58835861	     -7.48652783	     59.81695444	     47.37189641	      0.00000000	      0.00000000
     54.60071429	     -3.99172970	     -3.76674238	     -5.00495277	      1.08372563	      0.92519898	      0.45935914	     19.84119321	     -0.45323952	     -4.83605471	     20.94105442	     20.94105442	      6.14219484	     -1.27479496	     -5.69078530	     -1.02245535	     -5.89989710	    -10.33639576	     17.53488006	     17.53488006	     20.23530372	     -5.82291423	      0.55199313	     -7.90892388	      6.32777942	      0.56909362	    -14.45423806	    -12.16574240	     -4.01111104	     29.92387234	     45.86050225	      0.00000000	      0.00000000	     30.29055399	    -18.11720374	     -7.30967735	     59.49884365	     47.34335947	      0.00000000	      0.00000000
